<?xml version="1.0" encoding="UTF-8" standalone="no"?>
<svg width="234px" height="234px" xmlns="http://www.w3.org/2000/svg" version="1.1">
    <title>Anorak copy</title>
    <description>Created with Sketch (http://www.bohemiancoding.com/sketch)</description>
    <defs>
        <linearGradient id="gradient-1" x1="50%" y1="0%" x2="50%" y2="100%">
            <stop offset="0%" style="stop-color:rgb(255,255,255); stop-opacity:100"></stop>
            <stop offset="100%" style="stop-color:rgb(0,0,0); stop-opacity:100"></stop>
        </linearGradient>
        <linearGradient id="gradient-2" x1="50%" y1="0%" x2="50%" y2="100%">
            <stop offset="0%" style="stop-color:rgb(255,255,255); stop-opacity:100"></stop>
            <stop offset="100%" style="stop-color:rgb(0,0,0); stop-opacity:100"></stop>
        </linearGradient>
        <linearGradient id="gradient-3" x1="50%" y1="0%" x2="50%" y2="100%">
            <stop offset="0%" style="stop-color:rgb(255,255,255); stop-opacity:100"></stop>
            <stop offset="100%" style="stop-color:rgb(0,0,0); stop-opacity:100"></stop>
        </linearGradient>
        <linearGradient id="gradient-4" x1="50%" y1="0%" x2="50%" y2="100%">
            <stop offset="0%" style="stop-color:rgb(255,255,255); stop-opacity:100"></stop>
            <stop offset="100%" style="stop-color:rgb(0,0,0); stop-opacity:100"></stop>
        </linearGradient>
        <linearGradient id="gradient-5" x1="50%" y1="0%" x2="50%" y2="100%">
            <stop offset="0%" style="stop-color:rgb(255,255,255); stop-opacity:100"></stop>
            <stop offset="100%" style="stop-color:rgb(0,0,0); stop-opacity:100"></stop>
        </linearGradient>
    </defs>
    <g fill="rgb(215,215,215)" id="Page 1">
        <g fill="rgb(135,211,124)" id="Background"></g>
        <path id="Background" d="M0,22 L0,212 C0,224 9,234 22,234 L212,234 C224,234 234,224 234,212 L234,22 C234,9 224,0 212,0 L22,0 C9,0 0,9 0,22 Z M0,22" fill="rgb(135,211,124)"></path>
        <path id="Background decoration" d="" fill="rgb(135,211,124)"></path>
        <g fill="rgb(255,254,254)" id="Shape"></g>
        <path id="Shape" d="M87,26 C106,20 126,20 146,26 L146,39 C161,43 176,48 192,57 L203,212 L175,212 C175,182 173,152 168,124 L163,124 L163,158 L144,162 L144,169 L163,165 L163,189 C149,196 134,200 120,201 L120,35 C129,34 137,32 137,30 C137,28 127,26 116,26 C105,26 95,28 95,30 C95,32 103,34 113,35 L113,201 C98,200 84,196 70,189 L70,165 L89,169 L89,162 L70,158 L70,124 L65,124 C59,152 58,182 57,212 L30,212 L41,57 C56,48 71,42 87,39 L87,26 L87,26 L87,26" fill="rgb(255,254,254)"></path>
        <path id="Shape decoration" d="" fill="rgb(255,254,254)"></path>
    </g>
</svg>